<svg width="70" height="69" viewBox="0 0 70 69" fill="none" xmlns="http://www.w3.org/2000/svg">
<g clip-path="url(#clip0_116:38)">
<path d="M67.4036 14.1422L62.5719 14.1419V9.13516C62.5719 7.98888 61.7341 7.01499 60.6015 6.84539C60.4038 6.81565 55.6967 6.13123 50.0286 7.16367C43.7098 8.3146 38.6704 11.1529 35.2525 15.4436C31.8344 11.1529 26.795 8.3146 20.4764 7.16367C14.8081 6.13147 10.101 6.81565 9.90353 6.84539C8.77098 7.01522 7.93317 7.98912 7.93317 9.13516V14.1419H3.10149C1.82435 14.1419 0.788574 15.1788 0.788574 16.4575V60.0888C0.788574 60.8385 1.15108 61.5418 1.76169 61.9762C2.37229 62.4107 3.1551 62.5222 3.86225 62.2754C4.03584 62.2153 21.3683 56.2938 34.2926 62.1953C34.9025 62.4738 35.6027 62.4738 36.2126 62.1953C49.1008 56.3106 66.4704 62.2157 66.643 62.2754C66.8909 62.3619 67.1476 62.4044 67.4033 62.4044C67.8775 62.4044 68.3467 62.2585 68.7436 61.9764C69.3542 61.542 69.7167 60.8388 69.7167 60.089V16.4577C69.7165 15.179 68.6809 14.1422 67.4036 14.1422ZM5.41463 56.9908V18.7728H7.93317V49.6081C7.93317 50.2809 8.22722 50.9198 8.73571 51.3595C9.24419 51.7993 9.92048 51.9966 10.5852 51.8983C10.7128 51.8797 20.761 50.4988 28.1021 55.5409C19.0591 53.9929 10.0084 55.7834 5.41463 56.9908ZM32.9396 53.4528C29.7063 50.5283 25.4947 48.5508 20.4764 47.6368C18.0614 47.1968 15.8209 47.0685 14.0292 47.0685C13.4973 47.0685 13.0048 47.0799 12.5595 47.0978V11.2614H12.5592C17.0047 11.0607 27.819 11.5364 32.9396 20.226V53.4528ZM37.5654 20.2262C42.6677 11.5739 53.4989 11.0764 57.9458 11.2672V47.0978C56.0003 47.0193 53.1603 47.0662 50.0286 47.6368C45.0103 48.5508 40.7988 50.5281 37.5654 53.4528V20.2262ZM42.3953 55.5423C49.7374 50.4972 59.7909 51.8795 59.9162 51.8981C60.5825 51.9982 61.2583 51.8021 61.7684 51.3626C62.2785 50.9225 62.5719 50.2823 62.5719 49.6081V18.7731H65.0904V56.9908C60.4952 55.783 51.4408 53.9918 42.3953 55.5423Z" fill="white"/>
</g>
<defs>
<clipPath id="clip0_116:38">
<rect width="68.9281" height="69" fill="white" transform="translate(0.788574)"/>
</clipPath>
</defs>
</svg>
