<svg width="54" height="30" viewBox="0 0 54 30" fill="none" xmlns="http://www.w3.org/2000/svg">
<path d="M24.8435 4.85374C24.8491 5.09614 24.8906 5.38695 25.0245 5.54489C25.0564 5.58249 25.1411 5.68235 25.4241 5.68235H36.9169C37.7042 5.68235 38.291 5.68249 38.7481 5.77655V4.02063H26.3069C25.667 4.02063 25.114 4.35993 24.8435 4.85374Z" fill="white"/>
<path d="M15.6877 15.614C15.6459 15.4778 15.5785 15.4779 15.5371 15.6143L15.0108 17.3465C14.9693 17.4828 15.0512 17.5931 15.1936 17.5931H16.0375C16.1799 17.5931 16.2615 17.4828 16.2197 17.3466L15.6877 15.614Z" fill="white"/>
<path d="M38.7482 6.5078C38.3745 6.39218 37.8008 6.39148 36.9169 6.39148H25.4242C25.0963 6.39148 24.8509 6.30609 24.6663 6.17188C23.9538 5.65355 24.1612 4.39483 24.1612 4.39483C24.1645 4.38602 24.1685 4.37795 24.1714 4.36887C24.4071 3.67405 25.0657 3.27643 25.7701 3.27643C25.8222 3.27643 25.8745 3.27856 25.9269 3.28297C25.9473 3.28468 25.9673 3.28552 25.9866 3.28552C26.0474 3.28552 26.1029 3.27745 26.1536 3.26294H38.717C39.5314 3.26294 39.5314 2 38.717 2H25.9293C25.8781 2 25.8301 2.00496 25.7853 2.01446C25.7568 2.01358 25.7284 2.01303 25.7 2.01303C24.224 2.01303 22.8901 3.23457 22.8982 4.72462C22.9104 6.96994 22.8982 9.21568 22.8982 11.4611C22.8982 14.5643 22.8982 17.6676 22.8982 20.7708C22.8982 22.3386 22.8982 23.9063 22.8982 25.4741C22.8982 26.8691 24.0291 28 25.4241 28H36.9169C39.4428 28 39.4428 28 39.4428 25.4741V8.91736C39.4428 7.2951 39.419 6.71548 38.7482 6.5078ZM32.0809 19.9538H30.5931C30.4507 19.9538 30.3018 19.8433 30.2605 19.707L30.1003 19.1786C30.059 19.0423 29.91 18.9317 29.7676 18.9317H28.1113C27.9689 18.9317 27.8207 19.0426 27.7803 19.179L27.6246 19.7064C27.5843 19.8431 27.436 19.9537 27.2936 19.9537H25.8562C25.7138 19.9537 25.639 19.8456 25.6891 19.7123L27.8347 14.0037C27.8847 13.8703 28.0408 13.7622 28.1833 13.7622H29.7542C29.8966 13.7622 30.0527 13.8703 30.1028 14.0037L32.2479 19.7123C32.298 19.8458 32.2233 19.9538 32.0809 19.9538ZM37.4573 17.2888C37.4573 17.4312 37.3418 17.5466 37.1994 17.5466H36.0892C35.9468 17.5466 35.8313 17.6621 35.8313 17.8045V18.9063C35.8313 19.0487 35.7159 19.1642 35.5735 19.1642H34.725C34.5826 19.1642 34.4672 19.0487 34.4672 18.9063V17.8045C34.4672 17.6621 34.3517 17.5466 34.2093 17.5466H33.1075C32.965 17.5466 32.8496 17.4312 32.8496 17.2888V16.4404C32.8496 16.298 32.965 16.1826 33.1075 16.1826H34.2093C34.3517 16.1826 34.4672 16.0671 34.4672 15.9247V14.8144C34.4672 14.672 34.5826 14.5565 34.725 14.5565H35.5734C35.7158 14.5565 35.8312 14.672 35.8312 14.8144V15.9247C35.8312 16.0671 35.9467 16.1826 36.0891 16.1826H37.1993C37.3417 16.1826 37.4572 16.298 37.4572 16.4404V17.2888H37.4573Z" fill="white"/>
</svg>
