<svg width="24" height="24" viewBox="0 0 24 24" fill="none" xmlns="http://www.w3.org/2000/svg">
<path d="M22.5226 10.97C22.9556 10.5295 23.1085 9.88304 22.9217 9.28207C22.7345 8.6811 22.2468 8.2521 21.6477 8.16106L16.3209 7.35317C16.094 7.31869 15.898 7.17017 15.7967 6.95544L13.4152 1.91778C13.1478 1.35175 12.6051 1 12.0002 1C11.3958 1 10.8531 1.35175 10.5857 1.91778L8.20379 6.9559C8.10247 7.17063 7.90599 7.31915 7.67913 7.35363L2.35232 8.16152C1.75364 8.2521 1.26554 8.68156 1.07832 9.28253C0.89154 9.8835 1.0444 10.53 1.47744 10.9705L5.33158 14.8917C5.49589 15.0591 5.57122 15.3 5.53245 15.5355L4.62321 21.0725C4.5426 21.5599 4.66506 22.0339 4.96726 22.4078C5.43686 22.9903 6.25667 23.1678 6.91217 22.8083L11.676 20.1938C11.8751 20.0848 12.1258 20.0857 12.3244 20.1938L17.0887 22.8083C17.3204 22.9356 17.5676 23 17.8226 23C18.2883 23 18.7297 22.7839 19.0332 22.4078C19.3358 22.0339 19.4578 21.559 19.3772 21.0725L18.4675 15.5355C18.4288 15.2996 18.5041 15.0591 18.6684 14.8917L22.5226 10.97Z" fill="white" stroke="#117D95"/>
</svg>
