<svg color="color" fill="fill" width="127" height="127" viewBox="0 0 127 127" xmlns="http://www.w3.org/2000/svg">
<path color="color" fill="fill"  d="M122.738 26.0298L113.836 26.0294V16.814C113.836 14.7042 112.292 12.9116 110.205 12.5995C109.841 12.5447 101.168 11.285 90.7247 13.1853C79.0822 15.3037 69.7972 20.5277 63.4998 28.4252C57.202 20.5277 47.9169 15.3037 36.2748 13.1853C25.8309 11.2854 17.1582 12.5447 16.7943 12.5995C14.7076 12.9121 13.1639 14.7046 13.1639 16.814V26.0294H4.26154C1.90841 26.0294 0 27.9378 0 30.2913V110.598C0 111.978 0.667924 113.272 1.79296 114.072C2.918 114.872 4.36032 115.077 5.66324 114.623C5.98309 114.512 37.9181 103.613 61.7312 114.475C62.855 114.988 64.145 114.988 65.2688 114.475C89.0152 103.644 121.019 114.513 121.337 114.623C121.793 114.782 122.266 114.86 122.738 114.86C123.611 114.86 124.476 114.592 125.207 114.073C126.332 113.273 127 111.979 127 110.599V30.2917C127 27.9382 125.092 26.0298 122.738 26.0298ZM8.52351 104.896V34.5529H13.1639V91.3076C13.1639 92.5459 13.7057 93.7218 14.6426 94.5313C15.5795 95.3408 16.8255 95.7038 18.0502 95.5229C18.2854 95.4887 36.7991 92.947 50.3252 102.227C33.6634 99.3782 16.9876 102.674 8.52351 104.896ZM59.2382 98.384C53.2808 93.0013 45.521 89.3615 36.2748 87.6793C31.8252 86.8694 27.697 86.6334 24.3959 86.6334C23.4158 86.6334 22.5084 86.6543 21.6879 86.6873V20.7274H21.6874C29.8783 20.358 49.8035 21.2337 59.2382 37.2276V98.384ZM67.7613 37.228C77.1623 21.3026 97.1188 20.3871 105.312 20.7381V86.6873C101.728 86.5427 96.4949 86.6291 90.7247 87.6793C81.4786 89.3615 73.7188 93.0009 67.7613 98.384V37.228ZM76.6603 102.23C90.1881 92.944 108.712 95.4883 108.943 95.5225C110.17 95.7068 111.415 95.3459 112.355 94.5368C113.295 93.727 113.836 92.5485 113.836 91.3076V34.5533H118.476V104.896C110.009 102.673 93.3267 99.3761 76.6603 102.23Z" fill="fill"/>
</svg>
