<svg width="22" height="22" viewBox="0 0 22 22" fill="none" xmlns="http://www.w3.org/2000/svg">
<path d="M20.566 10.0637C20.9596 9.66321 21.0986 9.07549 20.9288 8.52916C20.7586 7.98282 20.3153 7.59282 19.7706 7.51005L14.9281 6.77561C14.7218 6.74426 14.5436 6.60925 14.4515 6.41404L12.2865 1.83434C12.0434 1.31978 11.5501 1 11.0002 1C10.4507 1 9.95736 1.31978 9.71427 1.83434L7.5489 6.41445C7.45679 6.60966 7.27818 6.74468 7.07193 6.77603L2.22938 7.51047C1.68513 7.59282 1.2414 7.98324 1.0712 8.52957C0.9014 9.07591 1.04036 9.66363 1.43403 10.0641L4.9378 13.6289C5.08717 13.781 5.15565 14 5.12041 14.2141L4.29383 19.2477C4.22054 19.6908 4.33188 20.1218 4.6066 20.4616C5.03351 20.9912 5.7788 21.1526 6.3747 20.8257L10.7054 18.4489C10.8865 18.3498 11.1143 18.3507 11.2949 18.4489L15.6261 20.8257C15.8367 20.9415 16.0614 21 16.2933 21C16.7166 21 17.1179 20.8035 17.3938 20.4616C17.6689 20.1218 17.7799 19.69 17.7066 19.2477L16.8796 14.2141C16.8443 13.9996 16.9128 13.781 17.0622 13.6289L20.566 10.0637Z" fill="#F1CF56" stroke="white"/>
</svg>
