<svg width="54" height="30" viewBox="0 0 54 30" fill="none" xmlns="http://www.w3.org/2000/svg">
<path d="M27.1765 4C20.4516 4 15 9.14872 15 15.5C15 21.8513 20.4516 27 27.1765 27C33.9014 27 39.3529 21.8513 39.3529 15.5C39.3529 9.14872 33.9014 4 27.1765 4ZM33.3881 14.1822L27.0217 20.1948C26.6626 20.534 26.1753 20.7246 25.6673 20.7246C25.1594 20.7246 24.6722 20.534 24.313 20.1948L20.965 17.0328C20.217 16.3263 20.217 15.181 20.965 14.4745C21.7131 13.7681 22.9258 13.768 23.6738 14.4745L25.6674 16.3574L30.6793 11.624C31.4273 10.9175 32.64 10.9175 33.3881 11.624C34.136 12.3303 34.136 13.4757 33.3881 14.1822Z" fill="white"/>
</svg>
