<svg width="38" height="31" viewBox="0 0 38 31" fill="none" xmlns="http://www.w3.org/2000/svg">
<path d="M36.7248 4.16043L34.0611 4.1603V1.40007C34.0611 0.768126 33.5992 0.231218 32.9748 0.137721C32.8658 0.121326 30.2708 -0.255995 27.146 0.313189C23.6624 0.947693 20.8842 2.51244 18.9999 4.87793C17.1156 2.51244 14.3373 0.947693 10.8539 0.313189C7.72894 -0.255867 5.13395 0.121326 5.02507 0.137721C4.40069 0.231346 3.93881 0.768254 3.93881 1.40007V4.1603H1.27511C0.571022 4.1603 0 4.73192 0 5.43687V29.4908C0 29.9041 0.199851 30.2918 0.536476 30.5313C0.873101 30.7708 1.30466 30.8323 1.69451 30.6962C1.79022 30.6631 11.3456 27.3986 18.4708 30.6521C18.807 30.8056 19.193 30.8056 19.5292 30.6521C26.6345 27.4078 36.2103 30.6633 36.3055 30.6962C36.4421 30.7439 36.5836 30.7673 36.7246 30.7673C36.986 30.7673 37.2447 30.6869 37.4635 30.5314C37.8001 30.2919 38 29.9042 38 29.4909V5.43699C37.9999 4.73205 37.429 4.16043 36.7248 4.16043ZM2.55034 27.7828V6.7133H3.93881V23.7127C3.93881 24.0836 4.10092 24.4359 4.38124 24.6783C4.66157 24.9208 5.03441 25.0295 5.40084 24.9753C5.47121 24.9651 11.0108 24.2038 15.0579 26.9835C10.0725 26.1301 5.0829 27.1172 2.55034 27.7828ZM17.7248 25.8323C15.9423 24.2201 13.6205 23.1298 10.8539 22.626C9.52249 22.3834 8.2873 22.3127 7.29956 22.3127C7.00631 22.3127 6.73481 22.319 6.48928 22.3288V2.57225H6.48915C8.93995 2.46159 14.9018 2.72389 17.7248 7.51444V25.8323ZM20.275 7.51457C23.0879 2.74451 29.0592 2.4703 31.5107 2.57545V22.3288C30.4382 22.2855 28.8725 22.3114 27.146 22.626C24.3794 23.1298 22.0576 24.2199 20.275 25.8323V7.51457ZM22.9377 26.9843C26.9854 24.2029 32.5279 24.965 32.597 24.9752C32.9643 25.0304 33.3369 24.9223 33.6181 24.68C33.8993 24.4374 34.0611 24.0844 34.0611 23.7127V6.71343H35.4495V27.7828C32.9162 27.1169 27.9245 26.1295 22.9377 26.9843Z" fill="white"/>
</svg>
