<svg width="54" height="30" viewBox="0 0 54 30" fill="none" xmlns="http://www.w3.org/2000/svg">
<path d="M39.4358 13.7828C39.9475 13.2622 40.1282 12.4981 39.9074 11.7879C39.6862 11.0777 39.1098 10.5707 38.4018 10.4631L32.1065 9.5083C31.8384 9.46754 31.6067 9.29202 31.487 9.03825L28.6725 3.08465C28.3565 2.41571 27.7151 2 27.0003 2C26.286 2 25.6446 2.41571 25.3286 3.08465L22.5136 9.03879C22.3938 9.29256 22.1616 9.46809 21.8935 9.50884L15.5982 10.4636C14.8907 10.5707 14.3138 11.0782 14.0926 11.7884C13.8718 12.4987 14.0525 13.2627 14.5642 13.7833L19.1191 18.4175C19.3133 18.6153 19.4024 18.9001 19.3565 19.1783L18.282 25.722C18.1867 26.298 18.3314 26.8583 18.6886 27.3001C19.2436 27.9886 20.2124 28.1983 20.9871 27.7734L26.6171 24.6836C26.8524 24.5548 27.1486 24.5559 27.3834 24.6836L33.0139 27.7734C33.2878 27.9239 33.5798 28 33.8813 28C34.4316 28 34.9532 27.7446 35.3119 27.3001C35.6696 26.8583 35.8138 26.297 35.7185 25.722L34.6435 19.1783C34.5976 18.8995 34.6867 18.6153 34.8809 18.4175L39.4358 13.7828Z" fill="white"/>
</svg>
