<svg width="54" height="30" viewBox="0 0 54 30" fill="none" xmlns="http://www.w3.org/2000/svg">
<path d="M41.6085 16.5758C41.6085 12.8274 39.1137 9.65365 35.6986 8.62026V3.48344C33.6345 2.37046 31.5702 2 29.7367 2C26.0855 2 23.3493 3.46898 23.3493 3.46898C23.3493 3.46898 20.6127 2.0002 16.962 2C15.1283 1.99987 13.0645 2.37026 11 3.48344V22.0676C11 22.0676 13.7125 20.5987 17.3712 20.5987C19.2008 20.5987 21.2667 20.9657 23.3493 22.0676C24.3284 21.5496 25.3032 21.1987 26.2524 20.9672C27.7227 23.3164 30.3266 24.8874 33.2969 24.8874C35.0065 24.8874 36.5965 24.3674 37.9191 23.4789L42.3362 28L43.8018 26.5666L39.4647 22.1273C40.7925 20.6537 41.6085 18.7107 41.6085 16.5758ZM13.0501 19.1291V4.78487C14.2757 4.29672 15.5867 4.05004 16.9618 4.05011C19.824 4.05031 22.0464 5.11001 22.3246 5.24831V19.4023C20.7495 18.8452 19.0943 18.5485 17.3712 18.5485C15.7246 18.5485 14.2438 18.8101 13.0501 19.1291ZM25.3759 19.0914C25.0394 19.1837 24.7054 19.2842 24.3747 19.3961V5.24811C24.6902 5.0918 26.8986 4.05004 29.7366 4.05004C31.1119 4.05004 32.423 4.29672 33.6485 4.7848V8.28107C33.531 8.27611 33.4156 8.26326 33.297 8.26326C28.7132 8.26326 24.9844 11.9921 24.9844 16.5758C24.9844 17.4527 25.123 18.2972 25.3759 19.0914ZM28.5283 20.6246C28.0444 20.0558 27.6642 19.3989 27.4071 18.6827C27.1703 18.0231 27.0346 17.3159 27.0346 16.5758C27.0346 13.1227 29.8435 10.3134 33.297 10.3134C33.4157 10.3134 33.5315 10.3246 33.6485 10.3312C34.3706 10.3715 35.0618 10.5285 35.6986 10.7941C37.9624 11.7383 39.5584 13.9735 39.5584 16.5758C39.5584 20.0283 36.7495 22.8372 33.297 22.8372C31.3875 22.8373 29.6778 21.976 28.5283 20.6246Z" fill="white"/>
</svg>
